<?xml version="1.0" encoding="UTF-8" standalone="no"?>
<!DOCTYPE svg PUBLIC "-//W3C//DTD SVG 1.1//EN" "http://www.w3.org/Graphics/SVG/1.1/DTD/svg11.dtd">
<svg width="100%" height="100%" viewBox="0 0 1024 414" version="1.1" xmlns="http://www.w3.org/2000/svg" xmlns:xlink="http://www.w3.org/1999/xlink" xml:space="preserve" xmlns:serif="http://www.serif.com/" style="fill-rule:evenodd;clip-rule:evenodd;stroke-linejoin:round;">
    <g transform="matrix(1,0,0,1,0.677344,-31.6488)">
        <path d="M523.82,188.382C514.678,188.24 504.217,190.146 504.217,190.146L504.217,207.988L514.737,207.988L514.62,215.941C514.62,218.887 511.7,220.368 505.873,220.368C500.042,220.368 494.891,217.898 490.423,212.973C485.943,208.041 483.715,200.832 483.715,191.333C483.715,181.814 485.891,174.796 490.251,170.268C494.601,165.744 500.301,163.474 507.315,163.474C510.261,163.474 513.311,163.95 516.483,164.919C519.657,165.881 521.776,166.782 522.858,167.626C523.93,168.493 524.948,168.903 525.914,168.903C526.874,168.903 528.427,167.781 530.574,165.511C532.727,163.248 534.656,159.818 536.356,155.244C538.05,150.646 538.899,147.122 538.899,144.623C538.899,142.143 538.845,140.433 538.735,139.531C536.356,136.928 531.968,134.865 525.567,133.331C519.177,131.801 512.015,131.042 504.091,131.042C486.653,131.042 473.018,136.532 463.171,147.512C453.316,158.494 448.398,172.752 448.398,190.302C448.398,210.909 453.433,226.529 463.501,237.17C473.586,247.81 486.828,253.123 503.244,253.123C512.071,253.123 519.908,252.363 526.754,250.834C533.607,249.311 538.164,247.746 540.43,246.164L541.11,193.027C541.11,189.94 532.961,188.539 523.82,188.382ZM608.067,163.578C602.636,163.578 598.087,166.074 594.396,171.048C590.724,176.028 588.879,183.017 588.879,192.011C588.879,201.024 590.633,207.925 594.149,212.733C597.657,217.556 602.266,219.958 607.984,219.958C613.699,219.958 618.342,217.526 621.908,212.645C625.475,207.783 627.26,200.822 627.261,191.761C627.261,182.707 625.415,175.738 621.737,170.871C618.064,166.01 613.507,163.579 608.067,163.578M607.984,253.055C592.084,253.055 579.116,247.852 569.094,237.445C559.083,227.029 554.078,211.832 554.077,191.853C554.077,171.861 559.14,156.725 569.268,146.418C579.399,136.125 592.477,130.974 608.496,130.974C624.512,130.974 637.45,136.032 647.291,146.178C657.149,156.304 662.069,171.655 662.069,192.187C662.069,212.733 657.035,228.015 646.955,238.043C636.875,248.051 623.893,253.055 607.984,253.055M709.934,164.757L709.934,215.545C709.934,217.915 710.11,219.411 710.449,220.038C710.786,220.662 711.807,220.975 713.501,220.975C719.733,220.975 724.455,218.647 727.682,214.005C730.917,209.369 732.517,201.649 732.517,190.837C732.517,180.02 730.843,172.972 727.517,169.698C724.173,166.415 718.877,164.758 711.633,164.758L709.934,164.757ZM677.335,243.555L677.335,141.681C677.335,138.849 678.039,136.614 679.461,134.957C680.874,133.325 682.711,132.496 684.982,132.496L713.339,132.496C731.333,132.496 745.003,137.036 754.333,146.093C763.68,155.147 768.353,169.403 768.353,188.877C768.353,230.537 750.575,251.363 715.027,251.363L685.997,251.363C680.228,251.363 677.335,248.766 677.335,243.555M833.879,163.578C828.447,163.578 823.885,166.074 820.201,171.048C816.53,176.029 814.694,183.016 814.693,192.011C814.693,201.024 816.451,207.925 819.955,212.733C823.46,217.556 828.074,219.958 833.792,219.958C839.509,219.958 844.155,217.526 847.716,212.645C851.285,207.783 853.07,200.822 853.071,191.761C853.071,182.707 851.228,175.738 847.549,170.871C843.869,166.01 839.319,163.578 833.879,163.578M833.792,253.055C817.885,253.055 804.925,247.852 794.912,237.445C784.892,227.029 779.882,211.832 779.882,191.853C779.882,171.861 784.947,156.725 795.073,146.418C805.212,136.125 818.282,130.974 834.306,130.974C850.326,130.974 863.252,136.032 873.106,146.178C882.956,156.304 887.878,171.655 887.878,192.187C887.878,212.733 882.841,228.015 872.763,238.043C862.687,248.051 849.693,253.055 833.792,253.055M951.482,248.885C951.482,251.136 945.885,252.277 934.673,252.277C923.471,252.277 917.858,251.136 917.858,248.885L917.858,163.637L897.487,163.637C895.559,163.637 894.201,161.04 893.41,155.819C893.069,153.288 892.902,150.737 892.909,148.183C892.909,145.591 893.071,143.037 893.41,140.547C894.2,135.342 895.56,132.724 897.487,132.724L971.351,132.724C973.275,132.724 974.628,135.341 975.429,140.547C975.762,143.037 975.934,145.59 975.934,148.183C975.934,150.791 975.762,153.335 975.429,155.82C974.629,161.04 973.275,163.637 971.351,163.637L951.481,163.637L951.482,248.885Z" style="fill-rule:nonzero;stroke:white;stroke-width:23.5px;"/>
        <path d="M523.82,188.382C514.678,188.24 504.217,190.146 504.217,190.146L504.217,207.988L514.737,207.988L514.62,215.941C514.62,218.887 511.7,220.368 505.873,220.368C500.042,220.368 494.891,217.898 490.423,212.973C485.943,208.041 483.715,200.832 483.715,191.333C483.715,181.814 485.891,174.796 490.251,170.268C494.601,165.744 500.301,163.474 507.315,163.474C510.261,163.474 513.311,163.95 516.483,164.919C519.657,165.881 521.776,166.782 522.858,167.626C523.93,168.493 524.948,168.903 525.914,168.903C526.874,168.903 528.427,167.781 530.574,165.511C532.727,163.248 534.656,159.818 536.356,155.244C538.05,150.646 538.899,147.122 538.899,144.623C538.899,142.143 538.845,140.433 538.735,139.531C536.356,136.928 531.968,134.865 525.567,133.331C519.177,131.801 512.015,131.042 504.091,131.042C486.653,131.042 473.018,136.532 463.171,147.512C453.316,158.494 448.398,172.752 448.398,190.302C448.398,210.909 453.433,226.529 463.501,237.17C473.586,247.81 486.828,253.123 503.244,253.123C512.071,253.123 519.908,252.363 526.754,250.834C533.607,249.311 538.164,247.746 540.43,246.164L541.11,193.027C541.11,189.94 532.961,188.539 523.82,188.382M608.067,163.578C602.636,163.578 598.087,166.074 594.396,171.048C590.724,176.028 588.879,183.017 588.879,192.011C588.879,201.024 590.633,207.925 594.149,212.733C597.657,217.556 602.266,219.958 607.984,219.958C613.699,219.958 618.342,217.526 621.908,212.645C625.475,207.783 627.26,200.822 627.261,191.761C627.261,182.707 625.415,175.738 621.737,170.871C618.064,166.01 613.507,163.579 608.067,163.578M607.984,253.055C592.084,253.055 579.116,247.852 569.094,237.445C559.083,227.029 554.078,211.832 554.077,191.853C554.077,171.861 559.14,156.725 569.268,146.418C579.399,136.125 592.477,130.974 608.496,130.974C624.512,130.974 637.45,136.032 647.291,146.178C657.149,156.304 662.069,171.655 662.069,192.187C662.069,212.733 657.035,228.015 646.955,238.043C636.875,248.051 623.893,253.055 607.984,253.055M709.934,164.757L709.934,215.545C709.934,217.915 710.11,219.411 710.449,220.038C710.786,220.662 711.807,220.975 713.501,220.975C719.733,220.975 724.455,218.647 727.682,214.005C730.917,209.369 732.517,201.649 732.517,190.837C732.517,180.02 730.843,172.972 727.517,169.698C724.173,166.415 718.877,164.758 711.633,164.758L709.934,164.757ZM677.335,243.555L677.335,141.681C677.335,138.849 678.039,136.614 679.461,134.957C680.874,133.325 682.711,132.496 684.982,132.496L713.339,132.496C731.333,132.496 745.003,137.036 754.333,146.093C763.68,155.147 768.353,169.403 768.353,188.877C768.353,230.537 750.575,251.363 715.027,251.363L685.997,251.363C680.228,251.363 677.335,248.766 677.335,243.555M833.879,163.578C828.447,163.578 823.885,166.074 820.201,171.048C816.53,176.029 814.694,183.016 814.693,192.011C814.693,201.024 816.451,207.925 819.955,212.733C823.46,217.556 828.074,219.958 833.792,219.958C839.509,219.958 844.155,217.526 847.716,212.645C851.285,207.783 853.07,200.822 853.071,191.761C853.071,182.707 851.228,175.738 847.549,170.871C843.869,166.01 839.319,163.578 833.879,163.578M833.792,253.055C817.885,253.055 804.925,247.852 794.912,237.445C784.892,227.029 779.882,211.832 779.882,191.853C779.882,171.861 784.947,156.725 795.073,146.418C805.212,136.125 818.282,130.974 834.306,130.974C850.326,130.974 863.252,136.032 873.106,146.178C882.956,156.304 887.878,171.655 887.878,192.187C887.878,212.733 882.841,228.015 872.763,238.043C862.687,248.051 849.693,253.055 833.792,253.055M951.482,248.885C951.482,251.136 945.885,252.277 934.673,252.277C923.471,252.277 917.858,251.136 917.858,248.885L917.858,163.637L897.487,163.637C895.559,163.637 894.201,161.04 893.41,155.819C893.069,153.288 892.902,150.737 892.909,148.183C892.909,145.591 893.071,143.037 893.41,140.547C894.2,135.342 895.56,132.724 897.487,132.724L971.351,132.724C973.275,132.724 974.628,135.341 975.429,140.547C975.762,143.037 975.934,145.59 975.934,148.183C975.934,150.791 975.762,153.335 975.429,155.82C974.629,161.04 973.275,163.637 971.351,163.637L951.481,163.637L951.482,248.885Z" style="fill:rgb(65,64,66);fill-rule:nonzero;"/>
    </g>
    <g transform="matrix(1,0,0,1,-22.0226,-32.1408)">
        <path d="M643.572,294.88C640.921,294.88 638.745,296.084 637.044,298.493C635.351,300.906 634.467,303.886 634.392,307.431L651.932,307.431L651.932,305.805C651.932,302.668 651.199,300.055 649.716,297.983C648.241,295.908 646.196,294.88 643.572,294.88M644.165,330.615C640.065,330.615 636.719,329.072 634.12,325.994C631.513,322.921 630.21,318.99 630.21,314.201L630.21,307.888C630.21,303.09 631.519,299.09 634.123,295.909C636.746,292.742 639.889,291.159 643.573,291.159C647.548,291.159 650.645,292.572 652.843,295.405C655.043,298.242 656.147,302.055 656.147,306.839L656.147,311.01L634.392,311.01L634.392,314.172C634.392,317.852 635.274,320.915 637.039,323.362C638.786,325.812 641.163,327.028 644.164,327.028C646.251,327.028 648.052,326.661 649.556,325.939C651.073,325.202 652.404,324.131 653.45,322.807L655.167,325.797C654.017,327.253 652.534,328.43 650.716,329.302C648.906,330.17 646.719,330.614 644.166,330.614M667.355,291.859L667.7,298.143C668.714,295.913 670.053,294.181 671.734,292.977C673.401,291.767 675.364,291.153 677.621,291.153C681.017,291.153 683.619,292.409 685.425,294.933C687.251,297.451 688.155,301.367 688.155,306.682L688.155,329.873L683.906,329.873L683.906,306.72C683.906,302.377 683.27,299.343 682.006,297.583C680.748,295.823 678.899,294.947 676.493,294.947C674.335,294.947 672.525,295.648 671.074,297.073C669.617,298.485 668.531,300.367 667.807,302.739L667.807,329.873L663.588,329.873L663.588,291.86L667.355,291.859ZM700.625,314.254C700.625,318.112 701.355,321.18 702.838,323.462C704.303,325.766 706.533,326.905 709.509,326.905C711.549,326.905 713.266,326.361 714.676,325.248C716.081,324.135 717.19,322.586 718.012,320.621L718.012,301.79C717.222,299.765 716.138,298.13 714.768,296.87C713.4,295.63 711.666,295.007 709.582,295.007C706.612,295.007 704.366,296.301 702.874,298.898C701.372,301.501 700.624,304.893 700.624,309.059L700.625,314.254ZM696.363,309.059C696.363,303.673 697.451,299.345 699.637,296.084C701.806,292.839 704.824,291.213 708.667,291.213C710.801,291.213 712.674,291.733 714.274,292.777C715.877,293.801 717.202,295.3 718.266,297.207L718.678,291.92L722.259,291.92L722.259,329.968C722.259,334.839 721.129,338.614 718.859,341.285C716.588,343.945 713.36,345.294 709.193,345.294C707.693,345.294 706.083,345.059 704.361,344.603C702.637,344.147 701.109,343.549 699.771,342.798L700.939,339.094C702.123,339.854 703.415,340.432 704.77,340.81C706.183,341.225 707.649,341.433 709.122,341.426C712.146,341.425 714.383,340.457 715.832,338.521C717.284,336.56 718.012,333.723 718.012,329.968L718.012,325.371C716.933,327.081 715.61,328.395 714.042,329.301C712.479,330.213 710.652,330.669 708.594,330.669C704.776,330.669 701.78,329.173 699.618,326.183C697.451,323.2 696.363,319.218 696.363,314.253L696.363,309.059ZM736.563,329.975L732.297,329.975L732.297,291.86L736.563,291.86L736.563,329.975ZM736.563,281.007L732.297,281.007L732.297,275.002L736.563,275.002L736.563,281.007ZM750.337,291.859L750.683,298.143C751.699,295.913 753.033,294.181 754.71,292.977C756.387,291.767 758.353,291.153 760.6,291.153C763.997,291.153 766.61,292.409 768.42,294.933C770.241,297.451 771.137,301.367 771.137,306.682L771.137,329.873L766.889,329.873L766.889,306.72C766.889,302.377 766.254,299.343 764.992,297.583C763.724,295.823 761.889,294.947 759.475,294.947C757.318,294.947 755.513,295.648 754.063,297.073C752.608,298.485 751.518,300.367 750.797,302.739L750.797,329.873L746.573,329.873L746.573,291.86L750.337,291.859ZM792.411,294.88C789.759,294.88 787.586,296.084 785.893,298.493C784.195,300.906 783.308,303.886 783.233,307.431L800.773,307.431L800.773,305.805C800.773,302.668 800.042,300.055 798.563,297.983C797.087,295.908 795.038,294.88 792.411,294.88M793.013,330.615C788.903,330.615 785.557,329.072 782.965,325.994C780.363,322.921 779.062,318.99 779.062,314.201L779.062,307.888C779.062,303.09 780.364,299.09 782.972,295.909C785.588,292.742 788.734,291.159 792.411,291.159C796.389,291.159 799.488,292.572 801.694,295.405C803.891,298.242 804.994,302.055 804.994,306.839L804.994,311.01L783.234,311.01L783.234,314.172C783.234,317.852 784.121,320.916 785.876,323.362C787.63,325.812 790.009,327.028 793.013,327.028C795.093,327.028 796.893,326.661 798.395,325.939C799.914,325.203 801.247,324.132 802.292,322.807L804.017,325.797C802.861,327.253 801.377,328.43 799.563,329.302C797.753,330.17 795.565,330.614 793.013,330.614" style="fill-rule:nonzero;stroke:white;stroke-width:23.5px;"/>
        <path d="M643.572,294.88C640.921,294.88 638.745,296.084 637.044,298.493C635.351,300.906 634.467,303.886 634.392,307.431L651.932,307.431L651.932,305.805C651.932,302.668 651.199,300.055 649.716,297.983C648.241,295.908 646.196,294.88 643.572,294.88M644.165,330.615C640.065,330.615 636.719,329.072 634.12,325.994C631.513,322.921 630.21,318.99 630.21,314.201L630.21,307.888C630.21,303.09 631.519,299.09 634.123,295.909C636.746,292.742 639.889,291.159 643.573,291.159C647.548,291.159 650.645,292.572 652.843,295.405C655.043,298.242 656.147,302.055 656.147,306.839L656.147,311.01L634.392,311.01L634.392,314.172C634.392,317.852 635.274,320.915 637.039,323.362C638.786,325.812 641.163,327.028 644.164,327.028C646.251,327.028 648.052,326.661 649.556,325.939C651.073,325.202 652.404,324.131 653.45,322.807L655.167,325.797C654.017,327.253 652.534,328.43 650.716,329.302C648.906,330.17 646.719,330.614 644.166,330.614M667.355,291.859L667.7,298.143C668.714,295.913 670.053,294.181 671.734,292.977C673.401,291.767 675.364,291.153 677.621,291.153C681.017,291.153 683.619,292.409 685.425,294.933C687.251,297.451 688.155,301.367 688.155,306.682L688.155,329.873L683.906,329.873L683.906,306.72C683.906,302.377 683.27,299.343 682.006,297.583C680.748,295.823 678.899,294.947 676.493,294.947C674.335,294.947 672.525,295.648 671.074,297.073C669.617,298.485 668.531,300.367 667.807,302.739L667.807,329.873L663.588,329.873L663.588,291.86L667.355,291.859ZM700.625,314.254C700.625,318.112 701.355,321.18 702.838,323.462C704.303,325.766 706.533,326.905 709.509,326.905C711.549,326.905 713.266,326.361 714.676,325.248C716.081,324.135 717.19,322.586 718.012,320.621L718.012,301.79C717.222,299.765 716.138,298.13 714.768,296.87C713.4,295.63 711.666,295.007 709.582,295.007C706.612,295.007 704.366,296.301 702.874,298.898C701.372,301.501 700.624,304.893 700.624,309.059L700.625,314.254ZM696.363,309.059C696.363,303.673 697.451,299.345 699.637,296.084C701.806,292.839 704.824,291.213 708.667,291.213C710.801,291.213 712.674,291.733 714.274,292.777C715.877,293.801 717.202,295.3 718.266,297.207L718.678,291.92L722.259,291.92L722.259,329.968C722.259,334.839 721.129,338.614 718.859,341.285C716.588,343.945 713.36,345.294 709.193,345.294C707.693,345.294 706.083,345.059 704.361,344.603C702.637,344.147 701.109,343.549 699.771,342.798L700.939,339.094C702.123,339.854 703.415,340.432 704.77,340.81C706.183,341.225 707.649,341.433 709.122,341.426C712.146,341.425 714.383,340.457 715.832,338.521C717.284,336.56 718.012,333.723 718.012,329.968L718.012,325.371C716.933,327.081 715.61,328.395 714.042,329.301C712.479,330.213 710.652,330.669 708.594,330.669C704.776,330.669 701.78,329.173 699.618,326.183C697.451,323.2 696.363,319.218 696.363,314.253L696.363,309.059ZM736.563,329.975L732.297,329.975L732.297,291.86L736.563,291.86L736.563,329.975ZM736.563,281.007L732.297,281.007L732.297,275.002L736.563,275.002L736.563,281.007ZM750.337,291.859L750.683,298.143C751.699,295.913 753.033,294.181 754.71,292.977C756.387,291.767 758.353,291.153 760.6,291.153C763.997,291.153 766.61,292.409 768.42,294.933C770.241,297.451 771.137,301.367 771.137,306.682L771.137,329.873L766.889,329.873L766.889,306.72C766.889,302.377 766.254,299.343 764.992,297.583C763.724,295.823 761.889,294.947 759.475,294.947C757.318,294.947 755.513,295.648 754.063,297.073C752.608,298.485 751.518,300.367 750.797,302.739L750.797,329.873L746.573,329.873L746.573,291.86L750.337,291.859ZM792.411,294.88C789.759,294.88 787.586,296.084 785.893,298.493C784.195,300.906 783.308,303.886 783.233,307.431L800.773,307.431L800.773,305.805C800.773,302.668 800.042,300.055 798.563,297.983C797.087,295.908 795.038,294.88 792.411,294.88M793.013,330.615C788.903,330.615 785.557,329.072 782.965,325.994C780.363,322.921 779.062,318.99 779.062,314.201L779.062,307.888C779.062,303.09 780.364,299.09 782.972,295.909C785.588,292.742 788.734,291.159 792.411,291.159C796.389,291.159 799.488,292.572 801.694,295.405C803.891,298.242 804.994,302.055 804.994,306.839L804.994,311.01L783.234,311.01L783.234,314.172C783.234,317.852 784.121,320.916 785.876,323.362C787.63,325.812 790.009,327.028 793.013,327.028C795.093,327.028 796.893,326.661 798.395,325.939C799.914,325.203 801.247,324.132 802.292,322.807L804.017,325.797C802.861,327.253 801.377,328.43 799.563,329.302C797.753,330.17 795.565,330.614 793.013,330.614" style="fill:rgb(109,110,113);fill-rule:nonzero;"/>
    </g>
    <g transform="matrix(1,0,0,1,166.698,-31.539)">
        <path d="M643.572,294.88C640.921,294.88 638.745,296.084 637.044,298.493C635.351,300.906 634.467,303.886 634.392,307.431L651.932,307.431L651.932,305.805C651.932,302.668 651.199,300.055 649.716,297.983C648.241,295.908 646.196,294.88 643.572,294.88M644.165,330.615C640.065,330.615 636.719,329.072 634.12,325.994C631.513,322.921 630.21,318.99 630.21,314.201L630.21,307.888C630.21,303.09 631.519,299.09 634.123,295.909C636.746,292.742 639.889,291.159 643.573,291.159C647.548,291.159 650.645,292.572 652.843,295.405C655.043,298.242 656.147,302.055 656.147,306.839L656.147,311.01L634.392,311.01L634.392,314.172C634.392,317.852 635.274,320.915 637.039,323.362C638.786,325.812 641.163,327.028 644.164,327.028C646.251,327.028 648.052,326.661 649.556,325.939C651.073,325.202 652.404,324.131 653.45,322.807L655.167,325.797C654.017,327.253 652.534,328.43 650.716,329.302C648.906,330.17 646.719,330.614 644.166,330.614M667.355,291.859L667.7,298.143C668.714,295.913 670.053,294.181 671.734,292.977C673.401,291.767 675.364,291.153 677.621,291.153C681.017,291.153 683.619,292.409 685.425,294.933C687.251,297.451 688.155,301.367 688.155,306.682L688.155,329.873L683.906,329.873L683.906,306.72C683.906,302.377 683.27,299.343 682.006,297.583C680.748,295.823 678.899,294.947 676.493,294.947C674.335,294.947 672.525,295.648 671.074,297.073C669.617,298.485 668.531,300.367 667.807,302.739L667.807,329.873L663.588,329.873L663.588,291.86L667.355,291.859ZM700.625,314.254C700.625,318.112 701.355,321.18 702.838,323.462C704.303,325.766 706.533,326.905 709.509,326.905C711.549,326.905 713.266,326.361 714.676,325.248C716.081,324.135 717.19,322.586 718.012,320.621L718.012,301.79C717.222,299.765 716.138,298.13 714.768,296.87C713.4,295.63 711.666,295.007 709.582,295.007C706.612,295.007 704.366,296.301 702.874,298.898C701.372,301.501 700.624,304.893 700.624,309.059L700.625,314.254ZM696.363,309.059C696.363,303.673 697.451,299.345 699.637,296.084C701.806,292.839 704.824,291.213 708.667,291.213C710.801,291.213 712.674,291.733 714.274,292.777C715.877,293.801 717.202,295.3 718.266,297.207L718.678,291.92L722.259,291.92L722.259,329.968C722.259,334.839 721.129,338.614 718.859,341.285C716.588,343.945 713.36,345.294 709.193,345.294C707.693,345.294 706.083,345.059 704.361,344.603C702.637,344.147 701.109,343.549 699.771,342.798L700.939,339.094C702.123,339.854 703.415,340.432 704.77,340.81C706.183,341.225 707.649,341.433 709.122,341.426C712.146,341.425 714.383,340.457 715.832,338.521C717.284,336.56 718.012,333.723 718.012,329.968L718.012,325.371C716.933,327.081 715.61,328.395 714.042,329.301C712.479,330.213 710.652,330.669 708.594,330.669C704.776,330.669 701.78,329.173 699.618,326.183C697.451,323.2 696.363,319.218 696.363,314.253L696.363,309.059ZM736.563,329.975L732.297,329.975L732.297,291.86L736.563,291.86L736.563,329.975ZM736.563,281.007L732.297,281.007L732.297,275.002L736.563,275.002L736.563,281.007ZM750.337,291.859L750.683,298.143C751.699,295.913 753.033,294.181 754.71,292.977C756.387,291.767 758.353,291.153 760.6,291.153C763.997,291.153 766.61,292.409 768.42,294.933C770.241,297.451 771.137,301.367 771.137,306.682L771.137,329.873L766.889,329.873L766.889,306.72C766.889,302.377 766.254,299.343 764.992,297.583C763.724,295.823 761.889,294.947 759.475,294.947C757.318,294.947 755.513,295.648 754.063,297.073C752.608,298.485 751.518,300.367 750.797,302.739L750.797,329.873L746.573,329.873L746.573,291.86L750.337,291.859ZM792.411,294.88C789.759,294.88 787.586,296.084 785.893,298.493C784.195,300.906 783.308,303.886 783.233,307.431L800.773,307.431L800.773,305.805C800.773,302.668 800.042,300.055 798.563,297.983C797.087,295.908 795.038,294.88 792.411,294.88M793.013,330.615C788.903,330.615 785.557,329.072 782.965,325.994C780.363,322.921 779.062,318.99 779.062,314.201L779.062,307.888C779.062,303.09 780.364,299.09 782.972,295.909C785.588,292.742 788.734,291.159 792.411,291.159C796.389,291.159 799.488,292.572 801.694,295.405C803.891,298.242 804.994,302.055 804.994,306.839L804.994,311.01L783.234,311.01L783.234,314.172C783.234,317.852 784.121,320.916 785.876,323.362C787.63,325.812 790.009,327.028 793.013,327.028C795.093,327.028 796.893,326.661 798.395,325.939C799.914,325.203 801.247,324.132 802.292,322.807L804.017,325.797C802.861,327.253 801.377,328.43 799.563,329.302C797.753,330.17 795.565,330.614 793.013,330.614" style="fill-rule:nonzero;stroke:white;stroke-width:23.5px;"/>
        <path d="M643.572,294.88C640.921,294.88 638.745,296.084 637.044,298.493C635.351,300.906 634.467,303.886 634.392,307.431L651.932,307.431L651.932,305.805C651.932,302.668 651.199,300.055 649.716,297.983C648.241,295.908 646.196,294.88 643.572,294.88M644.165,330.615C640.065,330.615 636.719,329.072 634.12,325.994C631.513,322.921 630.21,318.99 630.21,314.201L630.21,307.888C630.21,303.09 631.519,299.09 634.123,295.909C636.746,292.742 639.889,291.159 643.573,291.159C647.548,291.159 650.645,292.572 652.843,295.405C655.043,298.242 656.147,302.055 656.147,306.839L656.147,311.01L634.392,311.01L634.392,314.172C634.392,317.852 635.274,320.915 637.039,323.362C638.786,325.812 641.163,327.028 644.164,327.028C646.251,327.028 648.052,326.661 649.556,325.939C651.073,325.202 652.404,324.131 653.45,322.807L655.167,325.797C654.017,327.253 652.534,328.43 650.716,329.302C648.906,330.17 646.719,330.614 644.166,330.614M667.355,291.859L667.7,298.143C668.714,295.913 670.053,294.181 671.734,292.977C673.401,291.767 675.364,291.153 677.621,291.153C681.017,291.153 683.619,292.409 685.425,294.933C687.251,297.451 688.155,301.367 688.155,306.682L688.155,329.873L683.906,329.873L683.906,306.72C683.906,302.377 683.27,299.343 682.006,297.583C680.748,295.823 678.899,294.947 676.493,294.947C674.335,294.947 672.525,295.648 671.074,297.073C669.617,298.485 668.531,300.367 667.807,302.739L667.807,329.873L663.588,329.873L663.588,291.86L667.355,291.859ZM700.625,314.254C700.625,318.112 701.355,321.18 702.838,323.462C704.303,325.766 706.533,326.905 709.509,326.905C711.549,326.905 713.266,326.361 714.676,325.248C716.081,324.135 717.19,322.586 718.012,320.621L718.012,301.79C717.222,299.765 716.138,298.13 714.768,296.87C713.4,295.63 711.666,295.007 709.582,295.007C706.612,295.007 704.366,296.301 702.874,298.898C701.372,301.501 700.624,304.893 700.624,309.059L700.625,314.254ZM696.363,309.059C696.363,303.673 697.451,299.345 699.637,296.084C701.806,292.839 704.824,291.213 708.667,291.213C710.801,291.213 712.674,291.733 714.274,292.777C715.877,293.801 717.202,295.3 718.266,297.207L718.678,291.92L722.259,291.92L722.259,329.968C722.259,334.839 721.129,338.614 718.859,341.285C716.588,343.945 713.36,345.294 709.193,345.294C707.693,345.294 706.083,345.059 704.361,344.603C702.637,344.147 701.109,343.549 699.771,342.798L700.939,339.094C702.123,339.854 703.415,340.432 704.77,340.81C706.183,341.225 707.649,341.433 709.122,341.426C712.146,341.425 714.383,340.457 715.832,338.521C717.284,336.56 718.012,333.723 718.012,329.968L718.012,325.371C716.933,327.081 715.61,328.395 714.042,329.301C712.479,330.213 710.652,330.669 708.594,330.669C704.776,330.669 701.78,329.173 699.618,326.183C697.451,323.2 696.363,319.218 696.363,314.253L696.363,309.059ZM736.563,329.975L732.297,329.975L732.297,291.86L736.563,291.86L736.563,329.975ZM736.563,281.007L732.297,281.007L732.297,275.002L736.563,275.002L736.563,281.007ZM750.337,291.859L750.683,298.143C751.699,295.913 753.033,294.181 754.71,292.977C756.387,291.767 758.353,291.153 760.6,291.153C763.997,291.153 766.61,292.409 768.42,294.933C770.241,297.451 771.137,301.367 771.137,306.682L771.137,329.873L766.889,329.873L766.889,306.72C766.889,302.377 766.254,299.343 764.992,297.583C763.724,295.823 761.889,294.947 759.475,294.947C757.318,294.947 755.513,295.648 754.063,297.073C752.608,298.485 751.518,300.367 750.797,302.739L750.797,329.873L746.573,329.873L746.573,291.86L750.337,291.859ZM792.411,294.88C789.759,294.88 787.586,296.084 785.893,298.493C784.195,300.906 783.308,303.886 783.233,307.431L800.773,307.431L800.773,305.805C800.773,302.668 800.042,300.055 798.563,297.983C797.087,295.908 795.038,294.88 792.411,294.88M793.013,330.615C788.903,330.615 785.557,329.072 782.965,325.994C780.363,322.921 779.062,318.99 779.062,314.201L779.062,307.888C779.062,303.09 780.364,299.09 782.972,295.909C785.588,292.742 788.734,291.159 792.411,291.159C796.389,291.159 799.488,292.572 801.694,295.405C803.891,298.242 804.994,302.055 804.994,306.839L804.994,311.01L783.234,311.01L783.234,314.172C783.234,317.852 784.121,320.916 785.876,323.362C787.63,325.812 790.009,327.028 793.013,327.028C795.093,327.028 796.893,326.661 798.395,325.939C799.914,325.203 801.247,324.132 802.292,322.807L804.017,325.797C802.861,327.253 801.377,328.43 799.563,329.302C797.753,330.17 795.565,330.614 793.013,330.614" style="fill:rgb(109,110,113);fill-rule:nonzero;"/>
    </g>
    <g transform="matrix(1,0,0,1,-13.9761,-32.4823)">
        <path d="M487.93,322.997C486.99,324.923 485.266,326.688 482.742,328.286C480.222,329.893 477.02,330.692 473.131,330.692C467.999,330.692 463.872,329.075 460.737,325.805C457.615,322.562 456.051,317.885 456.051,311.783L456.051,296.57C456.051,290.6 457.524,286.022 460.482,282.827C463.432,279.657 467.385,278.047 472.322,278.047C477.146,278.047 480.886,279.317 483.534,281.828C486.173,284.347 487.559,287.866 487.68,292.36L487.614,292.56L483.674,292.56C483.534,289.117 482.534,286.459 480.652,284.581C478.781,282.72 475.997,281.778 472.322,281.778C468.602,281.778 465.654,283.037 463.499,285.563C461.349,288.081 460.275,291.733 460.275,296.531L460.275,311.832C460.276,316.807 461.434,320.601 463.751,323.214C466.067,325.806 469.189,327.106 473.131,327.106C476.007,327.106 478.321,326.596 480.051,325.552C481.789,324.524 482.993,323.267 483.675,321.777L483.675,308.45L473.057,308.45L473.057,304.746L487.93,304.746L487.93,322.997ZM507.487,326.899C509.823,326.899 511.903,326.238 513.719,324.889C515.539,323.536 516.815,321.826 517.571,319.743L517.571,311.519L510.815,311.519C507.942,311.519 505.643,312.333 503.919,313.961C502.193,315.578 501.338,317.598 501.338,319.998C501.338,322.028 501.872,323.694 502.954,324.979C504.034,326.268 505.544,326.899 507.487,326.899M518.202,329.967C518.024,328.895 517.864,327.82 517.722,326.742C517.622,325.892 517.572,325.036 517.572,324.18C516.439,326.048 514.908,327.644 513.089,328.855C511.253,330.091 509.211,330.703 506.961,330.703C503.814,330.703 501.394,329.728 499.681,327.776C497.979,325.816 497.118,323.176 497.118,319.84C497.118,316.317 498.355,313.49 500.838,311.392C503.318,309.294 506.688,308.245 510.928,308.245L517.571,308.245L517.571,303.573C517.571,300.887 516.885,298.771 515.539,297.242C514.164,295.732 512.275,294.967 509.838,294.967C507.57,294.967 505.699,295.689 504.23,297.149C502.767,298.599 502.04,300.373 502.04,302.486L498.096,302.451L498.026,302.245C497.916,299.379 498.999,296.845 501.287,294.599C503.566,292.359 506.49,291.247 510.048,291.247C513.565,291.247 516.395,292.316 518.557,294.447C520.706,296.598 521.782,299.668 521.783,303.657L521.783,322.302C521.783,323.66 521.847,324.979 521.966,326.238C522.081,327.495 522.29,328.742 522.593,329.967L518.202,329.967ZM535.107,291.859L535.467,297.759C536.467,295.647 537.806,294.02 539.465,292.863C541.13,291.722 543.088,291.152 545.339,291.152C547.635,291.152 549.571,291.82 551.133,293.172C552.695,294.519 553.847,296.559 554.579,299.299C555.517,296.77 556.843,294.771 558.565,293.324C560.287,291.874 562.377,291.152 564.795,291.152C568.13,291.152 570.718,292.502 572.55,295.202C574.391,297.907 575.309,302.058 575.309,307.666L575.309,329.873L571.063,329.873L571.063,307.593C571.063,302.93 570.418,299.647 569.163,297.759C567.902,295.869 566.092,294.917 563.753,294.917C561.291,294.917 559.369,295.957 557.986,298.069C556.611,300.181 555.763,302.823 555.455,306.014L555.455,329.874L551.231,329.874L551.231,307.616C551.231,303.062 550.592,299.804 549.286,297.857C547.987,295.911 546.179,294.945 543.859,294.945C541.641,294.945 539.846,295.622 538.501,296.965C537.148,298.314 536.186,300.16 535.602,302.503L535.602,329.872L531.382,329.872L531.382,291.858L535.107,291.859ZM596.564,294.88C593.92,294.88 591.748,296.084 590.047,298.493C588.342,300.908 587.462,303.885 587.391,307.431L604.928,307.431L604.928,305.805C604.928,302.668 604.192,300.055 602.718,297.983C601.236,295.908 599.188,294.88 596.564,294.88M597.162,330.615C593.063,330.615 589.711,329.072 587.107,325.994C584.51,322.921 583.212,318.99 583.211,314.201L583.211,307.888C583.211,303.09 584.514,299.09 587.123,295.909C589.739,292.742 592.881,291.159 596.564,291.159C600.547,291.159 603.632,292.572 605.834,295.405C608.043,298.243 609.147,302.054 609.146,306.839L609.146,311.01L587.39,311.01L587.39,314.172C587.39,317.852 588.272,320.916 590.025,323.362C591.782,325.812 594.169,327.028 597.161,327.028C599.238,327.028 601.049,326.661 602.557,325.939C604.07,325.202 605.396,324.131 606.434,322.807L608.162,325.797C607.014,327.253 605.528,328.43 603.712,329.302C601.901,330.17 599.712,330.614 597.161,330.614" style="fill-rule:nonzero;stroke:white;stroke-width:23.5px;"/>
        <path d="M487.93,322.997C486.99,324.923 485.266,326.688 482.742,328.286C480.222,329.893 477.02,330.692 473.131,330.692C467.999,330.692 463.872,329.075 460.737,325.805C457.615,322.562 456.051,317.885 456.051,311.783L456.051,296.57C456.051,290.6 457.524,286.022 460.482,282.827C463.432,279.657 467.385,278.047 472.322,278.047C477.146,278.047 480.886,279.317 483.534,281.828C486.173,284.347 487.559,287.866 487.68,292.36L487.614,292.56L483.674,292.56C483.534,289.117 482.534,286.459 480.652,284.581C478.781,282.72 475.997,281.778 472.322,281.778C468.602,281.778 465.654,283.037 463.499,285.563C461.349,288.081 460.275,291.733 460.275,296.531L460.275,311.832C460.276,316.807 461.434,320.601 463.751,323.214C466.067,325.806 469.189,327.106 473.131,327.106C476.007,327.106 478.321,326.596 480.051,325.552C481.789,324.524 482.993,323.267 483.675,321.777L483.675,308.45L473.057,308.45L473.057,304.746L487.93,304.746L487.93,322.997ZM507.487,326.899C509.823,326.899 511.903,326.238 513.719,324.889C515.539,323.536 516.815,321.826 517.571,319.743L517.571,311.519L510.815,311.519C507.942,311.519 505.643,312.333 503.919,313.961C502.193,315.578 501.338,317.598 501.338,319.998C501.338,322.028 501.872,323.694 502.954,324.979C504.034,326.268 505.544,326.899 507.487,326.899M518.202,329.967C518.024,328.895 517.864,327.82 517.722,326.742C517.622,325.892 517.572,325.036 517.572,324.18C516.439,326.048 514.908,327.644 513.089,328.855C511.253,330.091 509.211,330.703 506.961,330.703C503.814,330.703 501.394,329.728 499.681,327.776C497.979,325.816 497.118,323.176 497.118,319.84C497.118,316.317 498.355,313.49 500.838,311.392C503.318,309.294 506.688,308.245 510.928,308.245L517.571,308.245L517.571,303.573C517.571,300.887 516.885,298.771 515.539,297.242C514.164,295.732 512.275,294.967 509.838,294.967C507.57,294.967 505.699,295.689 504.23,297.149C502.767,298.599 502.04,300.373 502.04,302.486L498.096,302.451L498.026,302.245C497.916,299.379 498.999,296.845 501.287,294.599C503.566,292.359 506.49,291.247 510.048,291.247C513.565,291.247 516.395,292.316 518.557,294.447C520.706,296.598 521.782,299.668 521.783,303.657L521.783,322.302C521.783,323.66 521.847,324.979 521.966,326.238C522.081,327.495 522.29,328.742 522.593,329.967L518.202,329.967ZM535.107,291.859L535.467,297.759C536.467,295.647 537.806,294.02 539.465,292.863C541.13,291.722 543.088,291.152 545.339,291.152C547.635,291.152 549.571,291.82 551.133,293.172C552.695,294.519 553.847,296.559 554.579,299.299C555.517,296.77 556.843,294.771 558.565,293.324C560.287,291.874 562.377,291.152 564.795,291.152C568.13,291.152 570.718,292.502 572.55,295.202C574.391,297.907 575.309,302.058 575.309,307.666L575.309,329.873L571.063,329.873L571.063,307.593C571.063,302.93 570.418,299.647 569.163,297.759C567.902,295.869 566.092,294.917 563.753,294.917C561.291,294.917 559.369,295.957 557.986,298.069C556.611,300.181 555.763,302.823 555.455,306.014L555.455,329.874L551.231,329.874L551.231,307.616C551.231,303.062 550.592,299.804 549.286,297.857C547.987,295.911 546.179,294.945 543.859,294.945C541.641,294.945 539.846,295.622 538.501,296.965C537.148,298.314 536.186,300.16 535.602,302.503L535.602,329.872L531.382,329.872L531.382,291.858L535.107,291.859ZM596.564,294.88C593.92,294.88 591.748,296.084 590.047,298.493C588.342,300.908 587.462,303.885 587.391,307.431L604.928,307.431L604.928,305.805C604.928,302.668 604.192,300.055 602.718,297.983C601.236,295.908 599.188,294.88 596.564,294.88M597.162,330.615C593.063,330.615 589.711,329.072 587.107,325.994C584.51,322.921 583.212,318.99 583.211,314.201L583.211,307.888C583.211,303.09 584.514,299.09 587.123,295.909C589.739,292.742 592.881,291.159 596.564,291.159C600.547,291.159 603.632,292.572 605.834,295.405C608.043,298.243 609.147,302.054 609.146,306.839L609.146,311.01L587.39,311.01L587.39,314.172C587.39,317.852 588.272,320.916 590.025,323.362C591.782,325.812 594.169,327.028 597.161,327.028C599.238,327.028 601.049,326.661 602.557,325.939C604.07,325.202 605.396,324.131 606.434,322.807L608.162,325.797C607.014,327.253 605.528,328.43 603.712,329.302C601.901,330.17 599.712,330.614 597.161,330.614" style="fill:rgb(109,110,113);fill-rule:nonzero;"/>
    </g>
    <g id="macOS-Icon-Template" serif:id="macOS Icon Template" transform="matrix(0.419123,0,0,0.419123,-3.5165,-7.71869)">
        <g transform="matrix(1,0,0,1,99.6074,99.0688)">
            <g>
                <path d="M171.5,808.3C130.2,804.8 94,788 65,759C39.1,733.1 23.8,702.9 16.8,664C14.9,652.9 14.9,172.6 16.8,160C22.6,123.5 39.1,90.8 65,65C90.8,39.1 123.3,22.7 160,16.9C172.6,14.8 652.4,14.8 665,16.9C715.3,24.8 757.6,52.8 784.7,96C796.6,115.1 804.4,136.2 808.1,160C810.2,172.6 810.2,651.4 808.1,664C805.5,680.9 799.4,700.3 792.5,713.9C770.1,758.5 730.3,791.1 683.5,803.1C661.6,808.7 681.4,808.3 418,808.5C284.6,808.6 173.7,808.5 171.5,808.3Z" style="fill:rgb(194,194,194);fill-rule:nonzero;"/>
                <path d="M165.5,823C120.6,819.9 80.8,801.5 50,769.4C23.8,742.1 9,712.3 2.3,673C0.6,663.1 0.5,648.8 0.5,412C0.5,175.2 0.6,160.9 2.3,151C9,111.7 23.8,81.9 50,54.6C77.4,26.1 110.5,9 151.5,2.3C161.9,0.6 176.1,0.5 412.5,0.5C648.9,0.5 663.1,0.6 673.5,2.3C714.5,9 747.6,26.1 775,54.6C801.3,82 816.4,112.7 822.7,151.6C824.4,161.8 824.5,178.1 824.5,412C824.5,645.9 824.4,662.2 822.7,672.4C816.4,711.3 801.3,742 775,769.4C748.3,797.2 716.7,813.8 676.5,821.3C665.6,823.3 662.8,823.3 421,823.5C286.5,823.6 171.6,823.4 165.5,823ZM668,806.8C694,801.2 712.7,794.2 729.7,783.3C772.3,756.2 800.2,713.7 808.1,664C810.2,651.4 810.2,172.6 808.1,160C802.3,123.2 786.2,91.2 760.5,65.5C734.4,39.2 702,22.7 665,16.9C652.4,14.8 172.6,14.8 160,16.9C123.3,22.7 90.8,39.1 65,65C39.1,90.8 22.6,123.5 16.8,160C14.9,172.6 14.9,652.9 16.8,664C23.8,702.9 39.1,733.1 65,759C94,788 130.2,804.8 171.5,808.3C173.7,808.5 284.6,808.6 418,808.5C635.4,808.4 661.3,808.2 668,806.8Z" style="fill:rgb(67,74,82);fill-rule:nonzero;"/>
            </g>
        </g>
        <g>
            <g>
                <path d="M499.45,825.25C499.3,825.15 494.85,824.9 489.5,824.75C484.15,824.55 478.4,824.2 476.75,823.95C475.1,823.7 472.5,823.55 471,823.55C469.5,823.6 467.85,823.5 467.35,823.25C466.9,823.05 466,823 465.4,823.15C464.8,823.35 464.05,823.3 463.8,823.05C463.5,822.85 460.9,822.4 458,822.05C448.5,820.95 431.5,818 422.75,816C421.65,815.75 418.65,815.05 416.1,814.5C403.65,811.7 381.95,804.9 367.75,799.35C351,792.8 327.9,781.4 317,774.25C316.05,773.65 312.55,771.35 309.25,769.25C296.75,761.1 287.5,753.75 277.05,743.7C255.55,723.05 244.25,702.15 240.15,675.55C239.35,670.1 238.8,643.2 239.5,642.75C239.7,642.65 244.1,645.3 249.3,648.75C254.5,652.15 262.15,657.1 266.25,659.8C274.3,665.05 287.15,673.5 296.5,679.6C299.65,681.7 303.4,684.2 304.75,685.15C306.15,686.1 314.45,691.65 323.25,697.5C332.05,703.35 339.4,708.4 339.6,708.7C339.8,709 339.95,718.15 339.9,729C339.8,748.35 339.85,748.8 340.9,750.8C342.3,753.55 345.5,756.25 348.15,756.9C349.3,757.2 352.05,757.55 354.25,757.7C356.45,757.85 360.4,758.2 363,758.5C367.8,759.05 387.9,761.15 406,763C411.35,763.55 418.45,764.35 421.75,764.75C425.05,765.15 430.3,765.6 433.4,765.8C438.2,766.1 439.3,766 441,765.25C442.1,764.75 442.85,764.15 442.7,763.9C442.55,763.65 442.6,763.5 442.85,763.55C443.95,763.75 444.45,763.3 445.9,761.05C448,757.65 454.6,742.45 454.3,741.65C454.15,741.3 454.25,741.05 454.55,741.15C454.85,741.2 455.4,740.35 455.85,739.25C456.3,738.15 457.5,735.25 458.6,732.8C459.65,730.35 460.45,728.05 460.3,727.65C460.15,727.25 460.25,727.1 460.5,727.25C460.8,727.4 461.15,727.15 461.3,726.65C461.5,726.15 462.3,724.3 463.15,722.5C463.95,720.7 464.65,718.65 464.7,717.9C464.7,717.2 464.9,716.7 465.1,716.85C465.35,716.95 465.75,716.4 466.05,715.65C466.4,714.9 467.05,713.35 467.5,712.3L468.35,710.3L511.45,710.4C539.1,710.4 554.8,710.6 555.2,710.95C555.5,711.2 556.1,712.3 556.45,713.35C557.15,715.35 560.25,722.8 562.35,727.65C563.05,729.2 563.85,730.5 564.1,730.5C564.35,730.5 564.4,730.75 564.25,731C564.1,731.3 564.1,731.5 564.35,731.5C564.55,731.5 564.8,732 564.8,732.65C564.95,734.55 576.45,760.25 578.1,762.25C580.05,764.55 583,765.95 586,766C588.25,766 605.4,764.35 622.25,762.5C627.2,761.95 636.2,761.05 642.25,760.5C648.3,759.95 655.3,759.3 657.75,759C660.25,758.75 664.6,758.3 667.5,758C674.75,757.25 675.8,757 674.95,756.4C674.4,756 674.45,755.95 675.15,756.2C677.45,756.95 681.4,753.3 682.5,749.45C682.8,748.5 683,739.45 683,728.4L683,709.1L684.45,707.85C685.3,707.15 685.8,706.45 685.6,706.25C685.4,706 685.5,706 685.85,706.2C686.15,706.35 688.2,705.35 690.4,703.9C692.55,702.45 694.8,700.95 695.45,700.6C696.05,700.25 696.4,699.8 696.25,699.55C696.15,699.3 696.4,699.15 696.9,699.2C697.35,699.2 697.7,698.95 697.65,698.65C697.55,698.3 697.65,698.05 697.9,698.05C698.85,698.2 699.55,697.95 699.25,697.5C699.1,697.25 699.25,697.15 699.6,697.25C700,697.4 701.55,696.6 703.1,695.5C704.65,694.4 706.05,693.5 706.25,693.5C706.85,693.5 709.45,691.35 709.25,691C709.1,690.8 709.4,690.65 709.9,690.7C710.35,690.7 710.7,690.5 710.65,690.2C710.6,689.85 710.9,689.65 711.4,689.7C711.85,689.7 712.2,689.45 712.1,689.1C712.05,688.7 712.15,688.55 712.4,688.7C713,689.05 715.6,687.25 715.15,686.75C714.9,686.55 715,686.5 715.35,686.7C716.15,687.15 718.6,685.55 718.15,684.85C717.95,684.55 718.1,684.5 718.45,684.75C719.2,685.15 730.1,678.05 729.7,677.4C729.55,677.2 729.75,677.15 730.15,677.25C730.95,677.6 733.15,675.8 732.6,675.25C732.4,675 732.55,675 732.9,675.2C733.75,675.7 739.15,672.15 738.7,671.4C738.5,671.05 738.6,671 738.9,671.2C739.7,671.7 741.6,670.6 741.2,669.85C741,669.5 741,669.4 741.25,669.6C741.85,670.15 744.6,668.55 744.2,667.9C744,667.55 744.05,667.5 744.4,667.7C745.15,668.15 747.6,666.55 747.15,665.85C747,665.55 747.1,665.5 747.45,665.7C748.15,666.15 750.6,664.3 750.1,663.75C749.9,663.5 750,663.5 750.35,663.7C751.15,664.15 753.6,662.55 753.15,661.85C753,661.6 753.1,661.5 753.4,661.7C754.1,662.15 757.6,660.05 757.15,659.35C757,659.05 757.1,659 757.45,659.2C758.25,659.7 760.6,658.1 760.2,657.35C760,657 760,656.9 760.25,657.1C760.8,657.6 763.6,656.05 763.25,655.5C763.05,655.2 763.3,655.15 763.8,655.35C764.45,655.6 764.55,655.5 764.25,655C764,654.55 764.05,654.45 764.45,654.7C765.05,655.1 767.65,653.35 767.2,652.85C767.05,652.7 767.35,652.65 767.85,652.7C768.35,652.7 768.7,652.5 768.65,652.2C768.6,651.9 768.85,651.65 769.25,651.65C770.3,651.65 773.45,649.35 773.15,648.8C773,648.55 773.1,648.5 773.4,648.7C774.05,649.1 776.2,647.85 775.7,647.4C775.55,647.25 775.85,647.15 776.35,647.2C776.85,647.2 777.2,647 777.15,646.65C777.05,646.25 777.35,646.15 777.85,646.35C778.45,646.6 778.55,646.5 778.25,645.95C778.05,645.55 778,645.4 778.25,645.6C778.45,645.8 779.6,645.4 780.85,644.75C782.05,644.05 783.15,643.5 783.25,643.5C783.7,643.5 783.5,669.75 783,672.75C782.75,674.4 782.4,676.75 782.25,678C781.15,685.9 778.1,695.85 773.75,705.6C772.3,708.85 771.25,711.6 771.4,711.75C771.55,711.9 771.45,712 771.15,712C770.85,712 769.55,713.85 768.25,716.1C760.95,728.4 747,743.85 733,755.05C720.85,764.75 705.65,774.9 693.25,781.65C664.6,797.1 640,806.5 605.5,815.05C596,817.35 570.55,821.7 560.25,822.75C558.9,822.9 556.85,823.1 555.75,823.25C543.55,824.7 500.4,826.25 499.45,825.25Z" style="fill:rgb(205,207,208);fill-rule:nonzero;"/>
                <path d="M420.1,740.4C419.65,739.95 406,738.85 405.6,739.2C405.45,739.35 405.1,739.3 404.8,739.05C404.5,738.8 401.2,738.35 397.5,738.05C388.4,737.25 386.55,737.1 381,736.5C378.4,736.25 374,735.85 371.25,735.7C368.5,735.5 365.7,735.2 365,735L363.75,734.7L363.7,717.95C363.65,699.7 363.5,698.65 360.7,695.35C358.9,693.25 353.35,689.45 313.5,662.85C295.75,651.05 279.25,640 276.75,638.35C274.3,636.7 269.9,633.85 267,632C264.1,630.15 257.95,626.2 253.25,623.2C248.6,620.2 243.65,617.1 242.25,616.3C240.9,615.5 239.6,614.6 239.4,614.3C238.85,613.55 238.95,518.25 239.5,498.5C240.2,472.9 242.3,458.85 248.55,438.3C250.35,432.5 248.95,432.7 261.25,436.5C265.95,437.95 270.45,439.3 271.25,439.5C272.1,439.75 277.95,441.5 284.25,443.4C290.6,445.35 300.7,448.4 306.75,450.25C312.8,452.05 320.55,454.4 324,455.45C327.45,456.5 334.75,458.75 340.25,460.4C345.75,462.1 353.4,464.4 357.25,465.5C363.05,467.25 370.15,469.35 385.25,473.95C387.9,474.75 401.6,479 405.75,480.25C407.95,480.95 409.95,481.5 410.2,481.5C410.45,481.5 413.6,482.45 417.2,483.55C434.1,488.9 434.85,489.2 438.45,492.3C440.95,494.5 444.85,500.2 446.2,503.65C446.7,504.95 447.3,506 447.55,506C447.85,506 447.95,506.2 447.75,506.45C447.5,506.9 447.75,507.75 449.05,510.75C449.3,511.3 449.95,513.05 450.5,514.65C451.1,516.2 451.75,517.5 452,517.5C452.25,517.5 452.35,517.85 452.2,518.25C452,518.65 452.1,519 452.35,519C452.6,519 452.85,519.3 452.85,519.65C452.85,520.8 455.15,526.5 455.6,526.5C455.85,526.5 455.9,526.75 455.75,527C455.6,527.3 455.6,527.5 455.85,527.5C456.05,527.5 456.3,528.1 456.35,528.8C456.35,529.55 456.6,530.25 456.85,530.45C457.05,530.6 457.3,531.1 457.3,531.5C457.45,532.75 465.4,552.5 467.4,556.5C469.45,560.55 472.1,563.05 475.4,564C477.4,564.55 545.35,564.75 547.35,564.2C548,564 548.4,563.7 548.25,563.5C548.1,563.25 548.45,563.2 548.95,563.35C550.2,563.65 553.5,561.35 555,559.1C556.7,556.65 559.55,549.95 559.65,548.2C559.7,547.3 559.9,546.7 560.05,546.8C560.2,546.9 561.3,544.55 562.45,541.6C563.65,538.65 564.8,535.8 565,535.25C565.9,533.05 571,520 572.25,516.75C572.95,514.85 574,512.25 574.5,511C576.1,507.2 578,502.1 578,501.65C578,501.45 578.9,499.9 579.95,498.3C581.05,496.65 581.8,495.1 581.65,494.85C581.5,494.55 581.55,494.5 581.85,494.65C582.4,495 586.2,491.15 586.25,490.25C586.25,490 586.7,489.75 587.25,489.75C587.8,489.75 588.2,489.55 588.15,489.25C588.1,489 588.55,488.7 589.15,488.7C589.75,488.65 592.15,487.95 594.5,487.1C596.85,486.25 600.05,485.2 601.65,484.75C603.25,484.35 604.4,483.75 604.25,483.5C604.1,483.25 604.3,483.15 604.7,483.3C605.35,483.55 613.25,481.5 617.5,479.95C619.25,479.35 651.95,469.5 652.3,469.5C652.45,469.5 652.4,469.3 652.25,469C652.1,468.75 652.25,468.65 652.65,468.8C653.5,469.1 655.65,468.5 676.25,462.25C685.05,459.55 694.05,456.85 696.25,456.25C698.45,455.6 702.95,454.25 706.25,453.25C712.05,451.45 725,447.55 736.25,444.25C749.4,440.3 752.2,439.5 760.25,437.05C764.95,435.6 769.15,434.35 769.65,434.2C770.1,434.05 770.4,433.75 770.3,433.55C770.15,433.35 770.7,433.25 771.45,433.4C772.75,433.6 772.95,433.95 774.4,438.65C776.4,445.2 778.15,452.05 779.3,457.75C779.8,460.25 780.3,462.35 780.45,462.5C780.6,462.65 780.75,463.55 780.8,464.5C780.85,465.45 781.4,470.65 782.05,476C783.2,485.65 783.2,486.25 783.35,550.35L783.55,614.95L782.1,615.7C781.35,616.1 776.8,618.95 772,622.05C767.2,625.1 761.1,629 758.5,630.65C753.95,633.5 730.55,649 688.5,676.9C662.5,694.2 662.45,694.2 660.55,698.05L659,701.15L659,734.95L657.4,735.2C656.5,735.35 645.5,736.4 633,737.5C620.5,738.6 607.9,739.7 605,740C594.65,740.95 593.9,740.9 593.15,739.5C592.3,737.9 586.7,724.9 581.5,712.5C579.3,707.15 577.25,702.3 577,701.75C572.05,690.8 571.45,689.9 567.7,688L565.25,686.75L512.3,686.6C454.05,686.45 457.05,686.3 453,689.5C451.1,691 449.95,693 446.85,700.25C446.15,701.9 444.6,705.6 443.35,708.5C442.1,711.4 439.75,717 438.05,721C436.4,725 433.8,731.05 432.3,734.5L429.6,740.75L425.05,740.75C422.5,740.75 420.3,740.6 420.1,740.4ZM404.75,641.95C413.55,640.8 422.25,638.8 421.8,638.1C421.7,637.9 422.2,637.75 422.9,637.7C424.8,637.65 432.15,634.15 431.75,633.5C431.55,633.2 431.6,633 431.85,633.05C432.9,633.25 433.55,632.95 433.2,632.4C433,632.05 433.05,632 433.4,632.2C434.2,632.7 437.75,630.15 440.8,626.95C444,623.55 445.2,621.7 444.7,620.95C444.5,620.6 444.55,620.5 444.85,620.65C446.45,621.65 449.4,611.55 449.85,603.5C450.8,584.5 443.55,564.1 428.6,544C423.3,536.85 410.15,523.65 403.25,518.55C383.75,504.2 363.1,495.25 339.25,490.9C335.4,490.2 330.7,489.8 323.5,489.65C312.15,489.35 306.9,490.05 299.8,492.7C283.95,498.7 276.7,514.4 279.2,537.5C279.95,544.8 281.8,554.1 282.5,554.4C282.7,554.5 282.8,555 282.65,555.5C282.5,556.1 282.65,556.5 282.95,556.5C283.3,556.5 283.45,556.7 283.3,556.95C282.9,557.55 285.6,565.9 288.05,571.8C298.85,597.8 318.25,619.65 340.25,630.6C351.7,636.35 364.85,640.15 378.5,641.75C385.25,642.55 399.6,642.65 404.75,641.95ZM644.25,641.75C656.95,640.35 665.45,638.25 675.5,634.15C679.8,632.35 680.55,631.95 680.25,631.5C680.1,631.25 680.25,631.15 680.7,631.3C681.6,631.65 684.65,630.1 684.25,629.5C684.05,629.2 684.3,629.15 684.8,629.35C685.45,629.6 685.55,629.5 685.25,629C685,628.55 685.05,628.45 685.4,628.7C686.15,629.15 689.05,627.5 688.65,626.85C688.45,626.55 688.6,626.5 688.95,626.7C689.65,627.15 695.15,623.7 694.75,623.05C694.65,622.8 694.9,622.65 695.4,622.7C695.9,622.7 696.2,622.45 696.1,622C696,621.6 696.1,621.4 696.25,621.6C696.8,622.1 698.6,621.05 698.25,620.45C698.05,620.2 698.1,620 698.35,620.05C699.35,620.2 700.05,619.9 702.1,618.2C704.2,616.45 705.6,614.5 703.7,616C702.75,616.7 702.75,616.7 703.7,615.65C704.2,615 704.85,614.65 705.1,614.8C705.55,615.1 716.5,604.2 716.5,603.45C716.5,603.25 717.1,602.4 717.8,601.55C718.5,600.7 718.9,599.75 718.7,599.45C718.5,599.1 718.55,599 718.85,599.15C719.55,599.6 720.7,598.2 720.2,597.45C720,597.05 720.05,597 720.4,597.2C720.75,597.4 721.55,596.65 722.35,595.4C723.1,594.2 724.05,592.95 724.4,592.55C725.5,591.4 727.05,588 726.75,587.45C726.55,587.2 726.7,587.05 727,587.1C727.8,587.3 733.6,576 733.3,574.85C733.2,574.4 733.25,574.1 733.5,574.25C734.05,574.6 735.15,571.65 734.7,570.95C734.5,570.6 734.55,570.45 734.85,570.65C735.55,571.1 736.7,568.25 736.3,567.25C736.15,566.8 736.2,566.55 736.45,566.75C737.05,567.1 738.2,563.7 737.7,562.95C737.5,562.6 737.55,562.5 737.85,562.65C738.5,563.05 739.75,559.35 739.3,558.25C739.15,557.8 739.2,557.6 739.45,557.75C740,558.05 739.9,558.35 742,549.4C743.55,542.55 744.65,531.2 744.25,525.55C743.75,519.25 741.8,511.45 739.65,507.35C736.2,500.85 730.3,495.55 723.45,492.85C713.15,488.8 695.85,488.3 679.55,491.55C662.6,494.95 646.5,501.4 630.1,511.4C619.1,518.05 605,530.6 596.25,541.5C591.65,547.25 586.35,555.2 586.35,556.4C586.35,556.7 586.15,557 585.95,557C585.45,557 582.5,562.4 580.5,567C576.65,575.7 573.15,588.35 573.6,591.55C573.75,592.35 573.6,593 573.35,593C573.1,593 573,593.9 573.1,595C573.2,596.1 573.1,597 572.9,597C572.65,597 572.5,598.45 572.5,600.25C572.5,602.2 572.7,603.5 573,603.5C573.35,603.5 573.4,604.15 573.2,605.25C573.05,606.2 573.1,607 573.35,607C573.6,607 573.8,608.05 573.8,609.4C573.8,611.6 575.35,617 576,617C576.15,617 576.3,617.45 576.35,618.05C576.6,620.95 583.55,629.2 588.35,632.3C596.05,637.2 603.9,639.9 615.5,641.5C623.35,642.6 635.65,642.7 644.25,641.75Z" style="fill:rgb(205,207,208);fill-rule:nonzero;"/>
                <path d="M485.45,539.15C484.85,537.5 483.65,534.4 479.55,524C477.9,519.75 474.8,511.85 472.75,506.5C464.6,485.65 459.1,477.35 448.8,470.35C444.2,467.25 439.55,465.45 422.25,460.25C413.45,457.6 400.85,453.75 394.25,451.75C387.65,449.75 377.65,446.7 372,445C360.15,441.4 340.25,435.45 335.5,434C333.7,433.45 329,432.05 325,430.8C321,429.55 314.95,427.75 311.5,426.75C304.85,424.8 304.2,424.6 290,420.3C279.05,416.95 279.3,417.05 269.75,414.25C265.65,413.05 261.65,411.85 260.9,411.55L259.55,411.05L262.55,405.5C264.15,402.5 265.5,399.85 265.5,399.65C265.5,399.5 265.8,398.95 266.2,398.55C267.55,397 269.5,392.9 269.2,392.4C269,392.1 269.1,392 269.4,392.2C270.05,392.6 272.05,389.9 272.15,388.55C272.15,388 272.4,387.7 272.6,387.8C272.95,388.05 273.2,387.3 273.05,386.4C273.05,386.15 273.25,386.05 273.55,386.15C274.05,386.25 276.65,382.85 280.45,377.3C281,376.5 281.3,375.6 281.15,375.35C281,375.05 281.1,375 281.4,375.2C282,375.55 283.6,373.55 283.2,372.9C283.05,372.65 283.2,372.55 283.55,372.6C284.25,372.8 292.2,363.5 293.5,361C295,358 295.15,355.1 293.95,351.25C292.95,348 287.95,336.35 282.7,325.1C281.5,322.5 280.5,320.35 280.5,320.25C280.5,320.2 278.7,316.45 276.55,311.95C274.05,306.8 272.75,303.55 273.05,303.3C273.7,302.6 273.6,301.9 272.9,302.3C272.45,302.55 272.45,302.4 272.95,301.85C273.7,300.95 274.25,300.7 273.75,301.5C273.6,301.8 273.6,302 273.85,302C274.5,302 280.25,296.4 280.1,295.9C280.05,295.65 280.2,295.55 280.45,295.7C281.1,296.15 284.05,293.5 283.65,292.9C283.5,292.55 283.6,292.5 283.9,292.7C284.2,292.9 284.85,292.7 285.35,292.25C289.7,288.55 290.95,287.3 290.7,286.95C290.55,286.7 290.75,286.65 291.1,286.75C291.75,287 294.5,284.6 294.65,283.65C294.7,283.45 294.95,283.3 295.15,283.4C295.9,283.65 308.25,272.85 308.25,271.9C308.25,271.6 308.6,271.3 309.05,271.25C310.15,271.05 312,269.4 311.7,268.9C311.55,268.65 311.6,268.55 311.85,268.6C312.75,268.9 318.75,264 318.75,262.95C318.75,262.7 318.95,262.5 319.15,262.5C319.8,262.55 322.25,260.45 322.25,259.85C322.25,259.5 322.55,259.25 322.9,259.25C323.8,259.25 329.5,254.55 329.35,253.9C329.3,253.6 329.65,253.3 330.15,253.25C331.3,253.05 333.05,251.5 332.75,250.95C332.6,250.75 332.75,250.4 333.05,250.2C333.45,250 333.5,250.05 333.3,250.4C332.65,251.45 333.55,251.05 335,249.65C335.8,248.9 336.35,248.1 336.2,247.9C336.05,247.65 336.1,247.55 336.35,247.6C336.55,247.65 337.4,247.3 338.2,246.75L339.65,245.8L343.2,249.6C348.95,255.8 359.85,267.7 367.2,275.75C376.95,286.45 381.55,289.65 388.35,290.35C391.15,290.65 394.65,290.2 394.3,289.55C394.15,289.35 394.55,289.25 395.15,289.35C395.8,289.45 399.3,288.15 403.5,286.25C407.5,284.45 412.15,282.4 413.85,281.65C415.6,280.95 416.85,280.2 416.7,279.95C416.55,279.7 416.75,279.65 417.15,279.75C417.5,279.9 422.1,278.4 427.3,276.35C439.75,271.5 445.8,269.35 451.15,267.75C453.55,267.05 455.4,266.25 455.25,266C455.05,265.7 455.3,265.65 455.8,265.85C456.4,266.05 456.55,266 456.3,265.6C456.05,265.2 456.25,265.1 456.8,265.35C457.4,265.55 457.55,265.5 457.3,265.1C457.1,264.75 457.2,264.6 457.6,264.75C457.95,264.9 459.05,264.3 460,263.45C460.95,262.6 461.3,262.2 460.75,262.55C459.85,263.2 459.8,263.2 460.45,262.4C460.8,261.9 461.3,261.65 461.55,261.75C462.1,262.1 464.2,258.8 464.9,256.5C465.55,254.2 467.75,239.05 470.75,215.75C471.2,212.15 471.7,208.75 471.8,208.15L472,207L511.75,207C544.9,207 551.5,207.1 551.5,207.7C551.5,208.05 551.95,211.35 552.45,215.05C553,218.75 553.6,223.05 553.75,224.65C553.95,226.2 554.25,227.5 554.5,227.5C554.75,227.5 554.8,228.65 554.65,230C554.45,231.75 554.55,232.5 554.95,232.5C555.3,232.5 555.4,232.75 555.25,233C554.8,233.7 556,243 556.55,243C556.75,243 556.8,244.15 556.65,245.5C556.45,247.2 556.55,248 556.9,248C557.25,248 557.35,248.55 557.2,249.5C557,250.35 557.05,251 557.3,251C557.55,251 557.8,252.2 557.8,253.7C557.9,258.35 561.5,263.4 566.5,266C567.5,266.5 569.6,267.3 571.25,267.75C574.7,268.7 584.15,271.85 590.75,274.25C595.95,276.15 616,284.4 616.75,285C617.65,285.65 626.7,289.4 628.75,289.95C631.45,290.65 634.25,290.65 637.25,289.8C640.4,289 644.1,287.1 643.75,286.55C643.65,286.3 643.9,286.15 644.4,286.2C644.85,286.2 645.2,285.95 645.1,285.6C645.05,285.2 645.2,285.05 645.5,285.25C646.15,285.65 649.55,282.5 649.15,281.85C649,281.55 649.1,281.5 649.4,281.7C650,282.05 654.6,277.05 654.2,276.4C654.05,276.15 654.2,276.05 654.6,276.1C654.95,276.2 655.2,275.95 655.1,275.6C655.05,275.2 655.2,275.05 655.45,275.2C656,275.55 659.35,271.65 659.15,270.95C659.05,270.7 659.3,270.55 659.65,270.65C659.95,270.7 660.2,270.45 660.1,270.1C660.05,269.7 660.15,269.55 660.4,269.7C660.65,269.85 661.8,268.95 662.9,267.7C665.05,265.45 665.5,264.65 664.4,265.3C664.05,265.5 664.3,265.05 664.95,264.35C665.65,263.6 666.3,263 666.4,263C666.55,263 666.25,263.45 665.75,264C665.25,264.55 665.05,265 665.3,265C665.8,265 672,258.3 672,257.75C672,257.6 671.7,257.6 671.4,257.8C670.95,258.05 670.95,257.95 671.45,257.35C671.8,256.9 672.3,256.6 672.5,256.75C673,257.05 677.6,252.1 677.3,251.55C677.15,251.35 677.45,250.75 678,250.25C678.55,249.75 679,249.55 679,249.8C679,250 679.95,249.25 681.15,248.1L683.3,245.95L685.35,247.6C686.45,248.5 689.85,251.35 692.8,253.95C695.8,256.5 700.3,260.35 702.75,262.45C705.25,264.55 710.75,269.3 715.05,273C728.9,285 746.15,299.7 748.05,301.15C749.05,301.9 750,302.8 750.15,303.2C750.3,303.55 748.85,307.05 747,310.95C745.1,314.8 743.5,318.4 743.4,318.85C743.3,319.35 743.1,319.85 742.95,320C742.6,320.25 739.25,327.15 735.9,334.45C735.1,336.2 734.55,337.75 734.7,337.9C734.85,338.05 734.65,338.4 734.2,338.75C733.75,339.05 733.35,339.9 733.35,340.65C733.3,341.4 733.05,342 732.8,342C732.55,342 732.5,342.15 732.65,342.35C732.85,342.5 732.7,342.9 732.3,343.2C731.9,343.5 730.9,345.65 730,348C728.7,351.3 728.35,353 728.35,355.6C728.35,359.4 729.3,361.35 733.35,366.05C738.45,372.05 740.1,374.05 744.75,380.3C750.75,388.3 755.9,396.4 760.25,404.65L763.6,411L762.15,411.55C761.4,411.85 756.5,413.3 751.25,414.8C746.05,416.3 739.4,418.3 736.5,419.2C733.6,420.15 728.9,421.55 726,422.4C714.3,425.85 696.4,431.2 690.5,433C687.05,434.05 675.8,437.45 665.5,440.5C645.8,446.35 635.85,449.35 625.5,452.5C622.05,453.55 617,455.1 614.25,455.95C611.5,456.75 605.55,458.55 601,459.95C596.45,461.35 590.5,463.2 587.75,464.05C571.1,469.2 561.4,479.15 553.35,499.25C545.9,517.95 541,531.1 541.3,531.55C541.45,531.8 541.3,532 541,532C540.65,532 540.5,532.35 540.7,532.75C540.85,533.15 540.75,533.5 540.55,533.5C540.3,533.5 539.45,535.1 538.7,537L537.35,540.5L486,540.5L485.45,539.15ZM521.5,443C525.35,442.3 531.5,440.4 531.3,440.05C531.2,439.9 531.75,439.75 532.55,439.7C534.7,439.6 546.3,432.85 545.75,432C545.6,431.75 545.75,431.4 546.05,431.2C546.45,431 546.5,431.05 546.3,431.4C545.75,432.3 546.35,432.1 547.75,430.9C548.4,430.35 548.85,429.6 548.65,429.35C548.5,429.05 548.55,429 548.85,429.15C549.6,429.6 557.2,421.75 556.75,420.95C556.5,420.55 556.55,420.45 556.9,420.7C558.15,421.45 565.45,408.9 564.75,407.1C564.6,406.65 564.6,406.45 564.8,406.65C565.55,407.4 567.5,401.4 568.75,394.25C571.8,377.65 565.65,358.55 553.1,345.7C539.4,331.6 521.2,325.35 502.2,328.2C490.65,329.95 480.05,335.25 470.95,343.85C462.65,351.8 456.75,362.5 454.25,374.25C453.5,377.9 453.2,392 453.9,392C454.1,392 454.25,393.15 454.3,394.55C454.35,395.95 454.55,397.25 454.8,397.45C455.05,397.6 455.3,398.55 455.4,399.5C455.45,400.45 455.75,401.3 456,401.4C456.25,401.5 456.3,401.9 456.15,402.3C456,402.7 456.15,403 456.45,403C456.75,403 456.85,403.35 456.7,403.75C456.5,404.15 456.65,404.5 456.95,404.5C457.25,404.5 457.35,404.8 457.25,405.15C456.9,406.05 460.6,413.55 463.8,418.3C467.15,423.35 473.6,429.9 478.6,433.4C486.05,438.5 495.9,442.3 504.65,443.45C508.4,443.95 517.75,443.7 521.5,443Z" style="fill:rgb(205,207,208);fill-rule:nonzero;"/>
            </g>
            <g>
                <path d="M379,619.75C365.25,617.75 351.85,612.95 342.25,606.6C334.4,601.45 324.55,591 318.2,581.2C303.75,558.85 296.9,523.85 305.4,515.9C308.85,512.65 313.55,511.75 324.5,512.15C345.65,513 370.85,522.4 390.35,536.8C406.35,548.65 419.55,566.35 425.2,583.55C427.45,590.4 428.1,594.2 428.15,600C428.15,612.8 422.9,617.4 405.5,619.75C399.15,620.65 384.9,620.65 379,619.75Z" style="fill:rgb(195,126,119);fill-rule:nonzero;"/>
                <path d="M620.5,620.15C615.95,619.65 607.65,617.85 605.2,616.75C601.05,614.9 599.15,613.2 597.55,609.8C595.7,606 595.2,601.45 596,595.25C597.9,579.65 606.45,563.3 620,549.3C637.75,531 660.25,518.95 687,513.45C691.85,512.45 694.25,512.3 702.25,512.25C713.6,512.25 715.75,512.75 718.9,516.25C721.4,518.9 722,520.85 722.35,527.1C723.2,542.15 716.2,565.2 705.75,581.5C698.4,593 687.75,603.45 677.2,609.5C668.8,614.3 656.45,618.25 645.2,619.7C639.85,620.45 625.5,620.7 620.5,620.15Z" style="fill:rgb(195,126,119);fill-rule:nonzero;"/>
                <path d="M504.75,420.75C494.65,418.55 485.35,411.3 481,402.3C477.85,395.75 477.25,393.1 477.25,386C477.3,380.45 477.45,379.3 478.65,375.75C482.6,364.5 490.3,356.9 501.9,352.85C505.8,351.5 506.85,351.3 512,351.3C518.35,351.35 521,352 528,355.35C533.45,358 539.95,364.65 542.85,370.5C549.05,383.15 547.5,397.5 538.75,408.6C531.05,418.4 516.95,423.45 504.75,420.75Z" style="fill:rgb(195,126,119);fill-rule:nonzero;"/>
            </g>
            <g>
                <path d="M499,848.65C441.35,847.05 383.25,833.3 335.25,809.8C278.9,782.2 241.15,747.05 225.75,707.85C220.6,694.65 218.3,683.65 217.45,668.05C216.75,654.45 217.15,486.75 217.95,479.5C220.5,455.95 224.8,438.2 233.05,417.25C240.45,398.45 252.3,377.75 266.25,359.3L271.1,352.9L269,348.05C267.85,345.4 263.1,335.5 258.5,326C253.85,316.5 249.8,307.55 249.5,306.05C248.6,302.1 249.1,297.45 250.85,294.1C252.35,291.15 253.05,290.45 267.5,278.2C282.55,265.4 305.45,245.8 320.45,232.85C330.2,224.35 332.35,222.8 335.6,221.7C338.45,220.8 342.85,220.65 345.8,221.45C350.25,222.65 350.15,222.55 381,256.25C386,261.75 390.4,266.55 390.7,266.9C391.15,267.35 392.75,266.85 398.25,264.45C413.6,257.8 435.8,249.25 440.35,248.3C441.2,248.1 442.15,247.65 442.4,247.35C442.65,247 443.1,244.3 443.45,241.25C443.75,238.25 444.45,232.5 445,228.5C445.5,224.5 446.4,217.2 447,212.25C448.65,197.85 448.9,196.25 449.9,193.95C451.35,190.7 454.7,187.15 458.2,185.35L461.25,183.75L562.25,183.75L565.35,185.2C568.95,186.85 572.55,190.4 574.05,193.8C575,195.9 575.4,198.25 577.2,213.75C577.65,217.35 578.65,225.75 579.45,232.5C580.3,239.25 581,245.4 581.1,246.15C581.25,247.5 581.6,247.65 589.25,250.25C600.85,254.1 615.65,259.9 627,264.95L632.75,267.55L634.75,265.35C635.85,264.15 639.55,260.15 643,256.45C646.45,252.75 654.55,244 661.05,236.95C671.5,225.7 673.25,224 676.1,222.6C678.8,221.2 679.85,220.95 682.75,220.95C686.35,220.95 689.35,221.75 691.85,223.35C692.6,223.85 703.4,232.9 715.75,243.5C739.85,264.1 746.55,269.75 759.5,280.7C770.4,289.9 771.85,291.3 773.35,294.2C775,297.45 775.4,302.65 774.35,306.8C773.9,308.5 770.3,316.35 766.35,324.3C759.2,338.7 753,352 753,352.9C753,353.15 755.5,356.75 758.6,360.8C787.2,398.85 802.85,439.6 806.05,484.45C806.35,489.25 806.5,523.25 806.4,583.75C806.2,668.35 806.15,676.15 805.35,680.75C800.55,708.4 789.05,731.15 769.1,752.5C752.2,770.65 733.05,785.45 708.25,799.6C672.2,820.2 628.4,835.5 585,842.75C564.85,846.1 550.15,847.55 527,848.5C515.55,848.95 510.8,849 499,848.65ZM532.25,826.75C581.5,825.15 632.55,813.1 675.5,792.95C705.35,779 732.05,760.7 750.8,741.4C769.7,721.9 779.6,703.25 784.3,678.25C785.45,672.15 785.95,640.65 784.9,641.3C776.75,646.35 741.2,669.55 704.25,693.95L682,708.6L682,728.9C682,748.3 681.95,749.3 681,751.3C679.9,753.55 677.15,755.75 674.75,756.2C672.6,756.65 594.15,764.5 588.7,764.85C584.6,765.1 583.9,765 582.2,764.05C579.65,762.6 578.7,761.1 575,752.75C571.35,744.6 559.15,716 557.6,712L556.5,709.25L512.15,709.35L467.75,709.5L465.45,714.85C464.2,717.85 460.75,725.9 457.75,732.75C454.8,739.65 451.25,747.8 449.95,750.95C445.1,762.2 443.6,764.2 439.4,764.9C436.95,765.35 435.95,765.25 410.25,762.5C399.55,761.35 381.15,759.45 369.35,758.3C348.35,756.15 347.95,756.1 345.95,754.7C344.85,753.95 343.45,752.4 342.85,751.3C341.8,749.3 341.75,748.75 341.65,728.75L341.5,708.25L338.9,706.45C310.95,687.55 239.25,640.5 238.35,640.5C237.95,640.5 238.35,669.3 238.75,672.45C240.8,687.65 244.3,699.25 250.45,711.25C263,735.65 288.3,759.35 323.5,779.75C355.55,798.3 390.75,811.4 429.75,819.25C435.8,820.45 443.25,821.8 446.25,822.25C449.3,822.7 452.1,823.15 452.5,823.25C453.55,823.55 470.35,825.35 478.25,826.05C481.85,826.35 490.7,826.75 498,826.95C510.9,827.35 514.55,827.3 532.25,826.75ZM438.4,725.4C442.55,715.7 447.25,704.6 448.85,700.75C452.1,692.9 454.2,690.2 457.8,689.1C459.4,688.65 472.2,688.5 512.1,688.5C569.65,688.5 567,688.35 570.35,691.55C572.1,693.3 573.8,697 585.55,724.75C589.75,734.65 593.2,742.8 593.25,742.9C593.35,743 637.65,739.1 657.65,737.2L661,736.9L661,719.55C661,708.6 661.2,701.5 661.55,700.25C662.65,696.3 661.3,697.25 717,660.4C732.55,650.15 747.65,640.15 750.65,638.25C753.6,636.3 758.3,633.25 761.15,631.4C763.95,629.55 770.55,625.35 775.75,622.1L785.25,616.15L785.25,551.95C785.25,481.85 785.25,482.15 782.25,464.25C779.85,450.15 774.9,432.15 773.45,432.3C773.05,432.35 752.05,438.6 726.75,446.25C674.3,462.05 656.7,467.3 653.5,468.25C636.75,473.05 592,486.95 589.65,488.05C586.3,489.65 581.15,494.75 578.8,498.75C578.1,499.95 573.65,510.8 568.95,522.85C564.25,534.9 559.25,547.65 557.85,551.25C555.75,556.7 554.95,558.1 553,560.05C551.55,561.5 549.85,562.65 548.7,562.95C547.4,563.3 535.25,563.5 511.85,563.5C473.55,563.5 474.95,563.6 471.7,560.45C469.6,558.45 468.95,556.95 457.75,528.5C452.4,514.9 447.5,502.75 446.95,501.5C445.25,497.85 441.5,493.15 438.35,490.65C435.1,488.15 432.3,487.1 412,481C406.35,479.3 397.5,476.6 392.25,475C383.75,472.4 371.9,468.85 359.5,465.15C349.9,462.25 347.2,461.45 334.5,457.6C327.2,455.4 319.45,453 317.25,452.3C313.5,451.15 275.95,439.8 267.25,437.25C265.05,436.6 260.35,435.15 256.75,434.05C253.2,432.95 250.1,432.2 249.95,432.4C249.15,433.2 245,447.3 243.55,453.8C238.55,476.8 238.05,486.75 238,565.55L238,615.4L245.9,620.3C260.35,629.3 276,639.55 313,664.25C358.2,694.45 359.3,695.2 360.8,697.45C362.7,700.35 363,703.6 363,720.8L363,737L364.15,737C364.8,737 370.15,737.45 376.05,738C381.95,738.55 388.1,739.1 389.75,739.25C397.4,739.95 424.95,742.5 426.5,742.65C431.3,743.15 430.05,744.95 438.4,725.4ZM539.25,541.4C540.55,537.1 557.1,495.3 559,491.5C563.2,483.15 568.65,476.65 575.25,472.15C580.7,468.45 584.3,467 598.5,462.8C601.65,461.85 611.8,458.8 621,456C639.2,450.5 651.75,446.7 654.5,445.9C655.45,445.65 661.1,443.95 667,442.15C676.65,439.25 691.4,434.85 728,423.95C734.45,422 742.25,419.7 745.25,418.75C748.3,417.8 753.9,416.15 757.75,415C761.6,413.9 765.05,412.9 765.4,412.75C766.45,412.35 759.3,399.1 752.75,389.25C747.1,380.8 741.3,373.15 735.1,366.05C728.6,358.6 728.5,356.45 733.85,344C736.05,338.95 743.15,323.65 749.45,310.3C751.15,306.8 752.5,303.75 752.5,303.55C752.45,303.4 750.3,301.45 747.65,299.25C745.05,297.05 741.6,294.15 740.05,292.75C729.2,283.25 683.95,244.75 683.65,244.75C683.25,244.75 676.65,251.75 664.75,264.75C646.1,285.15 644.9,286.2 638.6,288.5C633.6,290.35 630.25,289.85 621.95,286.1C602.35,277.25 581.2,269.1 572.75,267.2C569.75,266.5 565.2,264.1 563.4,262.2C560.4,259.05 559.7,256.75 558.3,245.5C557.55,239.85 556.55,232 556,228C555.5,224 554.65,217.45 554.15,213.4L553.3,206L512.15,206C479.55,206 471,206.15 471,206.65C471,206.95 470.65,209.75 470.25,212.75C469.85,215.8 468.4,226.7 467,237.05C465.65,247.35 464.15,256.65 463.75,257.65C462.65,260.3 459.7,263.4 457,264.75C455.7,265.4 452.6,266.55 450.1,267.25C439.8,270.2 421.3,277.45 400.25,286.8C395,289.15 394.55,289.25 390.25,289.25C386.1,289.25 385.45,289.1 382.25,287.5C378.5,285.6 374.75,282.15 367.2,273.75C363.35,269.5 352.3,257.4 342.95,247.3L340.15,244.3L310.45,269.8C294.1,283.8 278.6,297.1 276,299.3L271.25,303.3L278.35,318.5C286.9,336.8 291.65,347.5 293.05,351.65C294.75,356.75 293.8,360.2 289.2,365.5C280.4,375.7 270.3,389.85 264.4,400.25C261.7,405.05 257.85,412.55 258.1,412.7C258.2,412.75 261.5,413.7 265.5,414.85C271.95,416.65 302.55,425.85 328.5,433.75C333.6,435.3 349.35,440.05 363.5,444.3C429.4,464.15 436.6,466.35 440.25,467.75C450.65,471.65 459.55,480.15 465.5,491.95C467.25,495.45 482.2,533.2 485.25,541.9C485.4,542.35 491.25,542.5 512.2,542.5L538.95,542.5L539.25,541.4Z" style="fill:rgb(67,74,82);fill-rule:nonzero;"/>
                <path d="M379.5,640.95C353,637.85 332.4,628.05 315.1,610.3C293.8,588.4 280.75,557.6 280.85,529.5C280.9,516 283.65,507.75 290.25,501.25C295.25,496.25 303.7,492.6 311.85,491.75C343.6,488.6 382.8,502.3 410,525.95C429.05,542.5 443,564.9 447.6,586.2C449.05,593.05 449.2,607.55 447.85,612.5C443.5,628.4 430.15,637.7 407,640.8C401.25,641.55 385.6,641.65 379.5,640.95ZM405.5,619.75C422.9,617.4 428.15,612.8 428.15,600C428.1,594.2 427.45,590.4 425.2,583.55C419.55,566.35 406.35,548.65 390.35,536.8C370.85,522.4 345.65,513 324.5,512.15C310.6,511.6 305.4,513.45 303.05,519.75C299.2,530 303.7,553.45 313.1,572.2C319.9,585.75 331.6,599.6 342.25,606.6C349.15,611.15 362.3,616.55 370.5,618.25C381.7,620.55 395.35,621.15 405.5,619.75Z" style="fill:rgb(67,74,82);fill-rule:nonzero;"/>
                <path d="M616.05,640.7C599.1,638.4 586.5,631.95 580.15,622.3C575.6,615.45 573.5,603.35 575,592.75C579.8,559.25 605.15,526.35 640.5,507.85C663.5,495.75 687.8,489.85 707.85,491.5C715.7,492.15 721.15,493.45 726.3,496C741.1,503.25 746.45,521.45 741.5,547.55C735.25,580.4 715.65,610 689.5,626.15C680.4,631.75 667.35,636.9 656.95,639C644.45,641.5 627.25,642.2 616.05,640.7ZM645.2,619.7C656.45,618.25 668.8,614.3 677.2,609.5C687.75,603.45 698.4,593 705.75,581.5C716.2,565.2 723.2,542.15 722.35,527.1C722,520.85 721.4,518.9 718.9,516.25C715.75,512.75 713.6,512.25 702.25,512.25C691.8,512.3 687.05,513 675.5,516.3C633.85,528.1 600.1,561.65 596,595.25C595.2,601.45 595.7,606 597.55,609.8C599.95,614.8 604.15,617.25 613.35,618.95C620.5,620.3 620.85,620.35 630.75,620.4C636.05,620.45 641.55,620.2 645.2,619.7Z" style="fill:rgb(67,74,82);fill-rule:nonzero;"/>
                <path d="M506.25,442.7C494.45,440.9 486.4,437.65 477.95,431.3C468.95,424.5 462.4,415.4 458.35,404.15C453.4,390.4 454.5,373.45 461.25,360.3C468,347.05 479.95,336.85 494.25,332.1C507.35,327.75 523.4,328.9 535.75,334.95C542.95,338.5 546.65,341.15 551.5,346C568.85,363.4 573.3,388.35 563,410.35C555.9,425.45 541.5,437.35 525.5,441.25C520.35,442.5 510,443.25 506.25,442.7ZM519.8,420.5C527.55,418.5 534.3,414.3 538.75,408.6C547.5,397.5 549.05,383.15 542.85,370.5C539.95,364.65 533.45,358 528,355.35C521,352 518.35,351.35 512,351.3C506.85,351.3 505.8,351.5 501.9,352.85C490.3,356.9 482.6,364.5 478.65,375.75C477.45,379.3 477.3,380.45 477.25,386C477.25,393.1 477.85,395.75 481,402.3C484.3,409.2 492.1,416.4 499.15,419.1C505.8,421.65 513.3,422.15 519.8,420.5Z" style="fill:rgb(67,74,82);fill-rule:nonzero;"/>
            </g>
        </g>
    </g>
</svg>
